<svg height="100" viewBox="0 0 100 100" width="100" xmlns="http://www.w3.org/2000/svg"><g fill="none" fill-rule="nonzero"><g fill="#818cf8"><path d="m14.645 14.645c4.8825-4.8825 12.795-4.8825 17.6775 0l53.0325 53.0325c4.8825 4.8825 4.8825 12.795 0 17.6775-4.8825 4.8825-12.795 4.8825-17.6775 0l-53.0325-53.0325c-4.8825-4.8825-4.8825-12.7975 0-17.6775z"/><path d="m50 100c-6.9025 0-12.5-5.5975-12.5-12.5v-75c0-6.9025 5.5975-12.5 12.5-12.5 6.9025 0 12.5 5.5975 12.5 12.5v75c0 6.9025-5.5975 12.5-12.5 12.5z"/><path d="m0 50c0-6.9025 5.5975-12.5 12.5-12.5h75c6.9025 0 12.5 5.5975 12.5 12.5 0 6.9025-5.5975 12.5-12.5 12.5h-75c-6.9025 0-12.5-5.5975-12.5-12.5z"/><path d="m14.645 85.355c-4.8825-4.8825-4.8825-12.795 0-17.6775l53.0325-53.0325c4.8825-4.8825 12.795-4.8825 17.6775 0 4.8825 4.8825 4.8825 12.795 0 17.6775l-53.0325 53.0325c-4.8825 4.8825-12.7975 4.8825-17.6775 0z"/></g><path d="m37.5 55.1775 25 25v-35.355l-25-25z" fill="#4338ca"/><path d="m19.8225 62.5h35.355l25-25h-35.355z" fill="#4338ca"/><path d="m37.5 80.1775 25-25v-35.355l-25 25z" fill="#4338ca"/><path d="m55.1775 37.5h-35.355l25 25h35.355z" fill="#4338ca"/><path d="m42.93 57.07c3.905 3.905 10.2375 3.905 14.1425 0 3.905-3.905 3.905-10.2375 0-14.1425-3.905-3.905-10.2375-3.905-14.1425 0-3.9075 3.9075-3.9075 10.2375 0 14.1425z" fill="#a5b4fc"/></g></svg>